0
SECTION
2
HEADER
9
$ACADVER
1
AC1015
9
$INSUNITS
70
4
0
ENDSEC
0
SECTION
2
TABLES
0
TABLE
2
LAYER
70
3
0
LAYER
2
0
70
0
62
7
6
CONTINUOUS
0
LAYER
2
Geometry
70
0
62
3
6
CONTINUOUS
0
LAYER
2
Annotations
70
0
62
5
6
CONTINUOUS
0
ENDTAB
0
ENDSEC
0
SECTION
2
ENTITIES
0
POINT
8
Geometry
10
100.0
20
200.0
30
0.0
0
LINE
8
Geometry
10
0.0
20
0.0
30
0.0
11
100.0
21
100.0
31
0.0
0
LWPOLYLINE
8
Geometry
90
4
70
1
10
50.0
20
50.0
10
150.0
20
50.0
10
150.0
20
150.0
10
50.0
20
150.0
0
CIRCLE
8
Geometry
10
200.0
20
200.0
30
0.0
40
50.0
0
ARC
8
Geometry
10
300.0
20
200.0
30
0.0
40
50.0
50
0.0
51
90.0
0
ENDSEC
0
EOF
